<svg width="134" height="33" viewBox="0 0 134 33" fill="none" xmlns="http://www.w3.org/2000/svg">
<path d="M3 4.00416V28.5667C3.00016 28.62 3.01606 28.672 3.04569 28.7163C3.07532 28.7606 3.11737 28.7952 3.16656 28.8156C3.21575 28.8361 3.2699 28.8417 3.32222 28.8315C3.37453 28.8213 3.42268 28.796 3.46062 28.7585L16.25 16.286L3.46062 3.81229C3.42268 3.77488 3.37453 3.7495 3.32222 3.73934C3.2699 3.72918 3.21575 3.73469 3.16656 3.75518C3.11737 3.77567 3.07532 3.81023 3.04569 3.85453C3.01606 3.89882 3.00016 3.95087 3 4.00416Z" fill="white"/>
<path d="M21.6125 11.1611L5.57627 2.32608L5.56627 2.32045C5.29002 2.17045 5.02752 2.5442 5.25377 2.7617L17.8244 14.7817L21.6125 11.1611Z" fill="white"/>
<path d="M5.25499 29.8106C5.02749 30.0281 5.28999 30.4018 5.56749 30.2518L5.57749 30.2462L21.6125 21.4112L17.8244 17.7893L5.25499 29.8106Z" fill="white"/>
<path d="M27.0863 14.7236L22.6081 12.2573L18.3975 16.2861L22.6081 20.3129L27.0863 17.8486C28.3044 17.1754 28.3044 15.3967 27.0863 14.7236Z" fill="white"/>
<path d="M71 2.28613C63.2663 2.28613 57 8.55238 57 16.2861C57 24.0199 63.2663 30.2861 71 30.2861C78.7337 30.2861 85 24.0199 85 16.2861C85 8.55238 78.7337 2.28613 71 2.28613ZM65.6875 22.4043C65.6016 22.5508 65.4786 22.6721 65.3309 22.756C65.1833 22.84 65.0161 22.8835 64.8462 22.8824C64.6731 22.8839 64.503 22.8371 64.355 22.7474C64.2448 22.6835 64.1483 22.5985 64.071 22.4972C63.9937 22.396 63.9372 22.2804 63.9047 22.1573C63.8721 22.0341 63.8643 21.9057 63.8815 21.7795C63.8987 21.6533 63.9407 21.5317 64.005 21.4218L64.9606 19.833C65.0089 19.751 65.0778 19.6831 65.1605 19.6359C65.2431 19.5888 65.3367 19.5641 65.4319 19.5643H65.5731C66.2662 19.5643 66.7513 19.9811 66.8925 20.3849L65.6875 22.4043ZM73.7781 19.2793L67.52 19.2861H63.3606C63.2298 19.2867 63.1001 19.2607 62.9796 19.2096C62.8591 19.1586 62.7503 19.0836 62.6596 18.9892C62.569 18.8948 62.4984 18.783 62.4523 18.6605C62.4062 18.5381 62.3854 18.4075 62.3913 18.2768C62.4113 17.7518 62.8694 17.3543 63.3912 17.3543H66.4062L69.9806 11.2699L68.8231 9.29801C68.5625 8.84863 68.6781 8.25613 69.125 7.97363C69.2352 7.90238 69.3586 7.85415 69.4879 7.83182C69.6172 7.8095 69.7497 7.81355 69.8773 7.84374C70.005 7.87392 70.1253 7.92961 70.2309 8.00746C70.3365 8.08532 70.4253 8.18372 70.4919 8.29676L71.1106 9.35363H71.1175L71.7369 8.29676C71.8036 8.18431 71.8922 8.08643 71.9975 8.00897C72.1028 7.93151 72.2227 7.87605 72.3499 7.84589C72.4771 7.81574 72.609 7.81151 72.7379 7.83346C72.8668 7.8554 72.9899 7.90308 73.1 7.97363C73.5444 8.25613 73.6588 8.84863 73.3962 9.29988L72.2388 11.2718L71.1138 13.1899L68.6706 17.3561V17.363H72.2712C72.7225 17.363 73.2881 17.6055 73.5169 17.9955L73.5369 18.0361C73.7388 18.3793 73.8531 18.6149 73.8531 18.958C73.8498 19.0694 73.825 19.1792 73.78 19.2811L73.7781 19.2793ZM78.6375 19.2861H76.9431V19.293L78.1819 21.3999C78.3151 21.6218 78.3559 21.8871 78.2955 22.1388C78.235 22.3904 78.0782 22.6083 77.8587 22.7455C77.7066 22.8383 77.5319 22.8873 77.3538 22.8874C77.1844 22.8873 77.0179 22.8434 76.8705 22.76C76.723 22.6765 76.5997 22.5563 76.5125 22.4111L74.6819 19.2949L73.5444 17.3574L72.0769 14.8486C71.8643 14.4904 71.7488 14.083 71.7417 13.6665C71.7345 13.25 71.8361 12.8389 72.0362 12.4736C72.3262 11.9618 72.5481 11.8274 72.5481 11.8274L75.8125 17.3486H78.6194C79.1444 17.3486 79.595 17.7524 79.6194 18.2705C79.6244 18.4022 79.6028 18.5336 79.5558 18.6568C79.5088 18.7799 79.4374 18.8923 79.3458 18.9872C79.2543 19.0821 79.1445 19.1574 79.0231 19.2088C78.9017 19.2602 78.7712 19.2865 78.6394 19.2861H78.6375Z" fill="white"/>
<g clip-path="url(#clip0_6_355)">
<path d="M110 7.73513L119.75 6.38613V15.8371H110V7.73513ZM120.949 6.23513L134 4.28613V15.6861H120.949V6.23513ZM110 16.8861H119.75V26.3371L110 24.9851V16.8861ZM120.949 16.8861H134V28.2861L121.1 26.4851" fill="white"/>
</g>
<defs>
<clipPath id="clip0_6_355">
<rect width="24" height="24" fill="white" transform="translate(110 4.28613)"/>
</clipPath>
</defs>
</svg>
